<svg width="33" height="33" viewBox="0 0 33 33" fill="none" xmlns="http://www.w3.org/2000/svg">
<path d="M2 28.7246C2.00831 28.7187 2.0164 28.7161 2.02429 28.7162C2.3727 28.5931 2.65403 28.4086 2.68403 27.9937C2.69353 27.859 2.73738 27.7329 2.7878 27.6105C2.83896 27.4866 2.78488 27.2881 2.98877 27.2678C3.16635 27.2504 3.32567 27.3135 3.42506 27.4765C3.60191 27.7677 3.84527 27.7358 4.12589 27.6438C4.56803 27.4996 4.74926 27.0918 5.0562 26.8115C5.4998 26.4065 5.46545 25.8741 5.53707 25.3749C5.57214 25.1315 5.59991 24.9555 5.86666 24.8968C5.97993 24.8715 6.0764 24.8128 6.0647 24.6766C6.05447 24.552 5.96751 24.4803 5.85423 24.4549C5.67373 24.4144 5.51222 24.3332 5.3456 24.2593C5.18701 24.1883 5.0182 24.142 5.03208 23.9196C5.0467 23.6849 5.17971 23.5523 5.39602 23.4741C5.78919 23.3313 5.83523 23.1981 5.53487 22.9278C5.26302 22.683 5.19505 22.42 5.2864 22.0868C5.3149 21.9825 5.31052 21.8716 5.31271 21.763C5.32587 21.1784 5.40991 21.0494 5.97847 20.8495C6.21159 20.7669 6.20063 20.672 6.05813 20.5192C5.88712 20.3352 5.71173 20.1664 5.58018 19.9367C5.34487 19.5245 5.42233 19.0399 5.19651 18.6291C5.11247 18.4748 5.12416 18.2452 5.26082 18.0779C5.53926 17.7367 5.83012 17.4114 6.07055 17.0333C6.24959 16.7515 6.37895 16.4834 6.37748 16.1763C6.37529 15.8264 6.43668 15.5047 6.51487 15.1643C6.60184 14.7818 6.74581 14.5058 7.08344 14.3464C7.5738 14.1138 7.72946 13.7227 7.67758 13.2235C7.65346 12.9895 7.74481 12.8316 7.92678 12.6998C8.0839 12.5853 8.2381 12.4694 8.41422 12.3825C8.58961 12.2963 8.77231 12.1949 8.84612 12.0087C8.96817 11.7008 9.21445 11.6074 9.5075 11.5864C9.70847 11.5711 9.8919 11.5443 10.0198 11.3647C10.0695 11.2937 10.1601 11.2756 10.2405 11.2452C10.66 11.0865 11.0773 10.9192 11.5428 11.0184C11.602 11.0307 11.6655 11.0177 11.7182 10.9836C12.0814 10.7468 12.3825 10.4099 12.62 10.0868C12.8867 9.72387 13.0614 9.24069 12.9956 8.7249C12.9444 8.32792 13.1111 7.99541 13.4699 7.77446C13.684 7.64262 13.7944 7.46079 13.7417 7.19565C13.6402 6.68277 13.9076 6.18364 13.8068 5.66568C13.7783 5.51718 13.9288 5.41286 14.0114 5.29478C14.1678 5.07093 14.3951 4.88548 14.3768 4.56891C14.3556 4.19004 14.5237 3.87927 14.884 3.77495C15.5285 3.58805 15.7741 3.08313 16.0657 2.56227C16.274 2.18992 16.4238 1.86249 16.2528 1.44667C16.1994 1.31772 16.2564 1.21558 16.4033 1.16922C16.7066 1.07359 17.1889 1.26701 17.3285 1.55171C17.3716 1.63937 17.3994 1.73716 17.5207 1.74151C17.6588 1.74658 17.7019 1.64009 17.748 1.54084C17.7933 1.44232 17.8452 1.34308 17.8488 1.23297C17.8561 1.03303 17.946 0.891041 18.1222 0.795418C18.2215 0.741811 18.2749 0.644739 18.3355 0.553462C18.6059 0.147788 19.7548 -0.149948 20.1859 0.0804173C20.3072 0.144891 20.4234 0.202844 20.5608 0.204293C20.7333 0.206466 20.8444 0.283979 20.9503 0.423791C21.2785 0.858442 21.6797 1.16197 22.2782 1.08156C22.4806 1.05476 22.6619 1.13879 22.8073 1.28223C22.9725 1.44522 23.169 1.5068 23.4007 1.51404C23.8494 1.52853 23.8882 1.57199 23.8977 2.032C23.905 2.3761 23.9963 2.70861 23.9912 3.06212C23.9868 3.37072 24.0497 3.67353 23.932 3.97851C23.8779 4.11832 23.9057 4.27552 24.0102 4.38853C24.1892 4.58123 24.2806 4.81884 24.3756 5.0521C24.5429 5.46357 24.8075 5.77072 25.2277 5.94458C25.4491 6.03658 25.5829 6.19451 25.5339 6.45602C25.4901 6.68928 25.607 6.84286 25.7875 6.97543C26.0769 7.18841 26.3751 7.35937 26.7573 7.31084C26.8654 7.29707 26.9736 7.32315 27.0752 7.37458C27.5663 7.62234 27.9594 7.95194 28.1509 8.49308C28.232 8.72273 28.4023 8.92122 28.0807 9.09725C28.0084 9.13709 28.0033 9.24431 27.9938 9.32834C27.9682 9.55581 27.8535 9.70431 27.6298 9.77748C27.4026 9.85209 27.214 9.94699 27.5195 10.1766C27.5984 10.236 27.5751 10.3301 27.5546 10.4127L27.5546 10.4128C27.499 10.6359 27.6372 10.6888 27.8147 10.7055C27.9477 10.7185 28.0837 10.7011 28.2159 10.7185C28.5178 10.7576 28.8006 10.8641 28.9212 11.1575C29.0629 11.503 29.3421 11.8189 29.2011 12.2448C29.1682 12.344 29.2478 12.4467 29.3149 12.5331L29.3194 12.539C29.4905 12.7592 29.6527 12.9852 29.8471 13.1866C30.2264 13.5807 30.5362 14.032 30.8366 14.484C31.1764 14.9947 30.9667 15.4779 30.3886 15.6105C30.23 15.6474 30.059 15.6982 30.0429 15.8822C30.0269 16.0691 30.2074 16.098 30.344 16.1393C30.4968 16.185 30.6495 16.261 30.5918 16.4334C30.5026 16.7007 30.5311 16.9941 30.4251 17.2433C30.2329 17.6946 30.0824 18.1438 30.1036 18.64C30.1116 18.8276 29.9808 18.8863 29.8193 18.9001C29.7207 18.9088 29.6264 18.8791 29.5307 18.8617C29.4174 18.8407 29.3078 18.8392 29.2413 18.9537C29.1777 19.0631 29.2215 19.1601 29.2822 19.2572C29.6162 19.7904 29.5533 20.2084 29.0644 20.593C28.9109 20.7133 28.9087 20.8205 29.0125 20.9589C29.0783 21.0465 29.1623 21.1175 29.2369 21.1965C29.3311 21.2965 29.5073 21.3624 29.4466 21.5413C29.3867 21.7181 29.2179 21.7478 29.0556 21.747C28.8115 21.7456 28.6537 21.8593 28.6069 22.0875C28.5353 22.4396 28.3373 22.5982 27.9748 22.5649C27.8922 22.5569 27.8082 22.5961 27.7241 22.6105C27.5253 22.6453 27.4201 22.7496 27.4464 22.9597C27.4698 23.1495 27.3697 23.2785 27.2345 23.3951C27.0138 23.5856 26.7704 23.7479 26.538 23.9225C26.2698 24.1239 25.71 24.1195 25.5054 23.942C25.4082 23.858 25.3359 23.6805 25.1919 23.7443C25.0224 23.8189 25.0794 24.0159 25.0713 24.1673C25.0655 24.2753 25.0779 24.3839 25.1079 24.4897C25.2248 24.8975 25.2628 25.3163 25.5281 25.6929C25.7173 25.961 25.8379 26.2392 26.1726 26.3819C26.5373 26.5376 26.6579 26.9563 26.4891 27.328C26.4233 27.4736 26.3853 27.625 26.3641 27.78C26.3298 28.0263 26.2019 28.1197 25.9475 28.1299C25.5566 28.1458 25.2007 28.2748 25.018 28.6551C24.901 28.8978 24.7607 29.0738 24.4684 29.1166C24.3069 29.1405 24.2243 29.2998 24.1315 29.4295C23.921 29.7251 23.7128 30.0264 23.4117 30.2401C23.001 30.5321 22.4974 30.6393 22.0531 30.882C21.6453 31.1044 21.1038 31.1869 20.6142 31.2145C20.0851 31.2449 19.6788 31.568 19.1847 31.6578C18.9231 31.7049 18.7769 32.0599 18.5731 32.0635C18.0816 32.0714 17.6646 32.2493 17.2372 32.4316L17.2306 32.4344C17.1984 32.4489 17.159 32.4539 17.1231 32.4525C16.6437 32.4373 16.2265 32.6401 15.8179 32.8437C15.1025 33.2008 14.4002 32.8335 13.692 32.8386C13.6619 32.8386 13.6305 32.8074 13.6054 32.7824L13.6022 32.7792C13.4516 32.6264 13.2601 32.6119 13.0614 32.6119C12.6711 32.6119 12.2816 32.6155 11.8921 32.6097C11.6582 32.6068 11.4697 32.5293 11.3418 32.3185C10.9581 31.6868 10.5102 31.5578 9.81662 31.8614C9.68362 31.92 9.55281 31.9954 9.41542 32.0316C8.98936 32.1439 8.537 32.2055 8.13725 32.0034C7.785 31.8251 7.46418 31.597 7.07978 31.4644C6.69246 31.3311 6.2876 31.1797 6.0077 30.866C5.81696 30.6523 5.61234 30.5719 5.33975 30.5792C5.1037 30.5857 4.85085 30.5581 4.72807 30.3314C4.55195 30.0054 4.25963 29.7765 4.05574 29.4867C3.78534 29.1021 3.50398 29.0253 3.10131 29.2129C3.02604 29.2484 2.93835 29.2614 2.86527 29.3063C2.63945 29.4447 2.43336 29.4505 2.24774 29.2332C2.19086 29.1674 2.12393 28.7178 2.02429 28.7162C2.01623 28.719 2.00813 28.7219 2 28.7246Z" fill="#2C9E5A"/>
</svg>
